<?xml version="1.0" standalone="no"?>
<!DOCTYPE svg PUBLIC "-//W3C//DTD SVG 20010904//EN"
 "http://www.w3.org/TR/2001/REC-SVG-20010904/DTD/svg10.dtd">
<svg version="1.0" xmlns="http://www.w3.org/2000/svg"
 width="500.000000pt" height="500.000000pt" viewBox="0 0 500.000000 500.000000"
 preserveAspectRatio="xMidYMid meet">

<g transform="translate(0.000000,500.000000) scale(0.100000,-0.100000)"
fill="#000000" stroke="none">
<path d="M1272 3180 c-193 -51 -357 -188 -447 -375 -58 -120 -70 -177 -69
-315 1 -96 6 -129 27 -195 80 -240 263 -416 493 -475 96 -25 263 -27 349 -5
327 84 549 384 532 720 -16 309 -219 562 -519 645 -97 27 -263 27 -366 0z
m398 -39 c183 -63 343 -214 413 -391 52 -131 60 -312 21 -440 -69 -229 -265
-416 -489 -465 -103 -23 -282 -17 -376 14 -151 48 -317 196 -389 345 -92 193
-92 401 2 596 56 116 186 248 300 303 116 56 172 67 323 63 103 -2 144 -7 195
-25z"/>
<path d="M1463 2833 c-9 -3 -13 -31 -13 -88 0 -94 1 -95 78 -95 33 0 52 -6 69
-22 l24 -22 6 22 c3 12 11 22 18 22 31 0 45 31 45 95 0 89 -8 95 -123 94 -51
0 -98 -3 -104 -6z m162 -53 c-3 -5 -30 -10 -60 -10 -30 0 -57 5 -60 10 -4 6
18 10 60 10 42 0 64 -4 60 -10z m5 -30 c0 -6 -28 -10 -65 -10 -37 0 -65 4 -65
10 0 6 28 10 65 10 37 0 65 -4 65 -10z m0 -40 c0 -5 -16 -10 -35 -10 -19 0
-35 5 -35 10 0 6 16 10 35 10 19 0 35 -4 35 -10z"/>
<path d="M1873 2734 c-3 -9 -1 -25 5 -35 15 -23 16 -69 2 -69 -5 0 -10 11 -10
24 0 46 -31 69 -99 74 -41 3 -61 1 -61 -7 0 -7 21 -11 53 -11 79 0 89 -15 85
-126 l-3 -89 -127 -3 -128 -3 0 66 c0 52 -4 67 -16 72 -47 18 -72 -72 -26 -92
12 -5 22 -18 22 -27 0 -10 10 -22 21 -29 12 -6 17 -14 12 -18 -17 -10 -33 -48
-33 -75 l0 -26 -165 0 -165 0 0 110 0 109 117 3 c82 2 118 7 121 16 3 9 -25
12 -117 12 l-121 0 0 40 0 40 -130 0 -130 0 0 -265 0 -265 130 0 130 0 0 55 0
55 70 0 c39 0 70 -4 70 -9 0 -4 -9 -20 -20 -34 -11 -14 -20 -35 -20 -46 0 -19
6 -21 75 -21 72 0 75 1 75 24 0 13 -7 29 -15 36 -8 7 -15 21 -15 31 0 17 9 19
93 19 102 0 117 7 117 52 l0 28 101 0 102 0 -6 41 c-3 22 -13 49 -22 59 -16
17 -15 19 4 30 12 6 21 19 21 29 0 10 9 21 20 24 18 5 20 14 20 78 0 51 5 77
15 89 9 10 13 25 9 34 -8 21 -53 21 -61 0z m42 -24 c-5 -8 -11 -8 -17 -2 -6 6
-7 16 -3 22 5 8 11 8 17 2 6 -6 7 -16 3 -22z m-695 -285 l0 -235 -110 0 -110
0 0 235 0 235 110 0 110 0 0 -235z m350 155 c0 -20 -5 -30 -15 -30 -10 0 -15
10 -15 30 0 20 5 30 15 30 10 0 15 -10 15 -30z m320 0 c0 -16 -4 -30 -10 -30
-5 0 -10 14 -10 30 0 17 5 30 10 30 6 0 10 -13 10 -30z m-110 -125 c-8 -9 -30
-15 -60 -15 -30 0 -52 6 -60 15 -11 13 -3 15 60 15 63 0 71 -2 60 -15z m-125
-15 c26 -29 120 -29 135 0 13 24 34 17 49 -16 25 -55 17 -64 -51 -64 -35 0
-93 3 -130 7 -61 5 -68 8 -68 27 0 23 26 66 39 66 4 0 16 -9 26 -20z m-258
-125 c0 -12 -16 -15 -79 -15 -63 0 -78 3 -78 15 0 12 15 15 78 15 63 0 79 -3
79 -15z m253 0 c0 -12 -19 -15 -110 -15 -93 0 -109 2 -104 15 5 12 27 15 110
15 86 0 104 -3 104 -15z m-220 -65 c0 -11 -7 -20 -15 -20 -15 0 -21 21 -8 33
12 13 23 7 23 -13z m13 -57 c-13 -2 -35 -2 -50 0 -16 2 -5 4 22 4 28 0 40 -2
28 -4z"/>
<path d="M1017 2633 c-12 -12 -7 -60 7 -72 9 -8 43 -11 93 -9 l78 3 3 43 3 42
-89 0 c-49 0 -92 -3 -95 -7z m163 -38 c0 -12 -14 -15 -70 -15 -56 0 -70 3 -70
15 0 12 14 15 70 15 56 0 70 -3 70 -15z"/>
<path d="M1027 2494 c-18 -19 0 -24 84 -24 68 0 90 3 87 13 -5 13 -158 23
-171 11z"/>
<path d="M1081 2306 c-7 -8 -11 -25 -9 -38 2 -18 9 -23 32 -23 36 0 56 27 40
53 -14 22 -48 27 -63 8z m39 -31 c0 -8 -4 -15 -10 -15 -5 0 -10 7 -10 15 0 8
5 15 10 15 6 0 10 -7 10 -15z"/>
<path d="M1625 2390 c3 -5 15 -10 26 -10 10 0 19 5 19 10 0 6 -12 10 -26 10
-14 0 -23 -4 -19 -10z"/>
<path d="M1730 2390 c0 -5 5 -10 10 -10 6 0 10 5 10 10 0 6 -4 10 -10 10 -5 0
-10 -4 -10 -10z"/>
<path d="M1770 2390 c0 -5 11 -10 25 -10 14 0 25 5 25 10 0 6 -11 10 -25 10
-14 0 -25 -4 -25 -10z"/>
<path d="M1700 2660 c0 -5 19 -10 43 -10 49 0 67 -13 67 -50 0 -41 -17 -50
-97 -50 -69 0 -73 1 -87 28 -13 24 -15 25 -16 6 0 -38 30 -54 106 -54 86 0
114 16 114 66 0 49 -29 74 -85 74 -25 0 -45 -4 -45 -10z"/>
<path d="M1660 2600 c0 -16 5 -21 23 -18 12 2 22 10 22 18 0 8 -10 16 -22 18
-18 3 -23 -2 -23 -18z"/>
<path d="M1742 2603 c4 -22 43 -25 43 -3 0 8 -11 16 -23 18 -19 3 -23 0 -20
-15z"/>
<path d="M3163 2868 c-50 -13 -83 -60 -83 -120 0 -44 4 -54 34 -84 29 -29 41
-34 80 -34 27 0 58 7 72 16 28 19 54 63 54 94 0 18 -6 20 -60 20 -53 0 -60 -2
-60 -20 0 -16 7 -20 30 -20 17 0 30 -4 30 -9 0 -17 -31 -34 -62 -34 -63 0 -91
81 -43 128 30 31 54 31 89 4 26 -20 29 -20 44 -5 15 15 15 18 -4 37 -26 26
-80 38 -121 27z"/>
<path d="M2340 2851 c0 -14 8 -21 28 -23 l27 -3 3 -97 c3 -97 3 -98 27 -98 25
0 25 0 25 100 l0 100 30 0 c23 0 30 4 30 20 0 18 -7 20 -85 20 -77 0 -85 -2
-85 -19z"/>
<path d="M2540 2750 l0 -120 76 0 c72 0 75 1 72 23 -3 19 -10 22 -50 25 -46 3
-48 5 -48 33 0 28 2 29 45 29 38 0 45 3 45 20 0 17 -7 20 -45 20 -41 0 -45 2
-45 25 0 23 4 25 40 25 33 0 40 3 40 20 0 18 -7 20 -65 20 l-65 0 0 -120z"/>
<path d="M2720 2750 l0 -120 75 0 c73 0 75 1 75 25 0 23 -3 25 -50 25 l-50 0
0 95 c0 95 0 95 -25 95 l-25 0 0 -120z"/>
<path d="M2900 2750 l0 -120 76 0 c72 0 75 1 72 23 -3 19 -10 22 -50 25 -46 3
-48 5 -48 33 0 28 2 29 45 29 38 0 45 3 45 20 0 17 -7 20 -45 20 -41 0 -45 2
-45 25 0 23 4 25 40 25 33 0 40 3 40 20 0 18 -7 20 -65 20 l-65 0 0 -120z"/>
<path d="M3360 2750 l0 -120 25 0 c18 0 25 5 25 20 0 11 6 20 13 20 8 0 22 -9
32 -20 12 -13 31 -20 53 -20 l36 0 -26 28 -27 27 25 28 c34 40 32 90 -5 128
-26 26 -36 29 -90 29 l-61 0 0 -120z m108 64 c42 -29 19 -94 -34 -94 -22 0
-24 3 -24 55 0 61 14 70 58 39z"/>
<path d="M3617 2755 c-31 -63 -57 -117 -57 -120 0 -12 49 -3 54 10 4 11 21 15
66 15 45 0 62 -4 66 -15 4 -8 18 -15 34 -15 l28 0 -62 120 c-33 66 -63 120
-66 120 -3 0 -31 -52 -63 -115z m78 -5 c20 -39 20 -40 -15 -40 -16 0 -30 2
-30 4 0 8 22 66 26 66 2 0 10 -13 19 -30z"/>
<path d="M3830 2751 l0 -121 25 0 c23 0 24 3 27 70 l3 70 37 -26 37 -26 34 26
c19 14 37 26 40 26 4 0 7 -31 7 -70 0 -68 1 -70 25 -70 l25 0 0 120 c0 66 -3
120 -7 120 -4 0 -33 -21 -65 -46 -62 -49 -61 -49 -123 1 -69 54 -65 58 -65
-74z"/>
<path d="M2555 2551 c-171 -79 -122 -323 65 -323 185 0 235 246 65 323 -51 23
-80 23 -130 0z m114 -65 c31 -17 51 -54 51 -97 0 -40 -56 -99 -94 -99 -83 0
-131 83 -91 160 26 50 78 64 134 36z"/>
<path d="M2935 2551 c-171 -79 -122 -323 65 -323 185 0 235 246 65 323 -51 23
-80 23 -130 0z m114 -65 c31 -17 51 -54 51 -97 0 -40 -56 -99 -94 -99 -83 0
-131 83 -91 160 26 50 78 64 134 36z"/>
<path d="M3845 2555 c-104 -38 -145 -163 -82 -256 31 -46 77 -70 135 -71 100
0 172 69 172 167 0 119 -115 201 -225 160z m126 -84 c65 -66 18 -181 -75 -181
-35 0 -84 45 -92 85 -18 99 97 166 167 96z"/>
<path d="M2180 2530 c0 -29 2 -30 45 -30 l45 0 0 -135 0 -135 30 0 30 0 0 135
0 135 45 0 c43 0 45 1 45 30 l0 30 -120 0 -120 0 0 -30z"/>
<path d="M3220 2395 l0 -165 100 0 100 0 0 30 0 30 -65 0 -65 0 0 135 0 135
-35 0 -35 0 0 -165z"/>
<path d="M3460 2395 l0 -165 69 0 c79 0 110 9 140 41 28 30 29 97 2 126 -13
13 -16 25 -10 34 17 28 10 79 -16 104 -22 22 -32 25 -105 25 l-80 0 0 -165z
m135 75 c0 -21 -5 -26 -32 -28 -31 -3 -33 -1 -33 28 0 29 2 31 33 28 27 -2 32
-7 32 -28z m13 -102 c7 -7 12 -21 12 -33 0 -30 -19 -45 -57 -45 -32 0 -33 1
-33 45 0 44 1 45 33 45 18 0 38 -5 45 -12z"/>
<path d="M4111 2538 c7 -13 29 -49 51 -80 l38 -57 -46 -72 c-63 -98 -63 -99
-21 -99 31 0 37 5 71 60 21 33 39 60 40 60 2 0 20 -27 40 -60 35 -57 39 -60
77 -60 l39 0 -55 85 c-30 47 -55 88 -55 90 0 3 20 36 45 75 25 39 45 72 45 75
0 3 -15 5 -34 5 -30 0 -38 -6 -65 -50 -17 -27 -34 -50 -38 -50 -5 0 -21 23
-38 50 -27 46 -32 50 -67 50 -37 0 -38 -1 -27 -22z"/>
</g>
</svg>
